<svg width="711" height="140" viewBox="0 0 711 140" fill="none" xmlns="http://www.w3.org/2000/svg">
<g filter="url(#filter0_d_3_374)">
<path d="M71.96 37.4L61.88 95H39.4L46.36 55.24H34.12L37.24 37.4H71.96ZM141.214 64.28C145.587 64.28 148.574 65.4533 150.174 67.8C151.774 70.0933 152.254 73.08 151.614 76.76L150.574 82.44C150.307 83.9867 149.8 85.5067 149.054 87C148.307 88.4933 147.32 89.8533 146.094 91.08C144.867 92.2533 143.4 93.2133 141.694 93.96C139.987 94.6533 138.04 95 135.854 95H77.7737L80.1737 81.16H126.734C128.12 81.16 129.027 80.9467 129.454 80.52C129.88 80.04 130.147 79.5067 130.254 78.92C130.307 78.6533 130.307 78.3867 130.254 78.12C130.254 77.8533 130.147 77.6133 129.934 77.4C129.774 77.1867 129.507 77.0267 129.134 76.92C128.76 76.76 128.227 76.68 127.534 76.68H92.4137C90.6537 76.68 89.0537 76.44 87.6137 75.96C86.1737 75.4267 84.9737 74.68 84.0137 73.72C83.0537 72.76 82.3604 71.6133 81.9337 70.28C81.5071 68.9467 81.4537 67.48 81.7737 65.88L83.1337 58.04C83.4537 56.28 84.0671 54.68 84.9737 53.24C85.8804 51.7467 86.9737 50.4667 88.2537 49.4C89.5871 48.3333 91.0537 47.5067 92.6537 46.92C94.3071 46.3333 96.0137 46.04 97.7737 46.04H154.494L152.094 59.88H106.814C105.48 59.88 104.6 60.0933 104.174 60.52C103.747 60.9467 103.48 61.4533 103.374 62.04C103.267 62.5733 103.347 63.08 103.614 63.56C103.88 64.04 104.68 64.28 106.014 64.28H141.214ZM239.139 46.04L236.499 61.32H211.779L205.859 95H184.179L190.099 61.32H165.059L167.699 46.04H239.139ZM368.832 37.4C370.806 37.4 372.619 37.8 374.273 38.6C375.926 39.3467 377.312 40.4133 378.432 41.8C379.552 43.1333 380.352 44.7067 380.833 46.52C381.366 48.28 381.446 50.1733 381.072 52.2L378.672 65.56C378.299 67.7467 377.552 69.7467 376.432 71.56C375.312 73.32 373.952 74.8667 372.352 76.2C370.806 77.5333 369.072 78.5733 367.152 79.32C365.232 80.0133 363.286 80.36 361.312 80.36H330.352L324.272 63.96H353.072C354.459 63.96 355.579 63.56 356.432 62.76C357.286 61.96 357.819 60.9733 358.032 59.8L358.112 59.4C358.326 58.2267 358.166 57.24 357.632 56.44C357.099 55.64 356.086 55.24 354.592 55.24H323.312L316.352 95H293.872L303.952 37.4H368.832ZM454.719 46.04C456.426 46.04 457.999 46.3333 459.439 46.92C460.879 47.4533 462.079 48.2267 463.039 49.24C463.999 50.2533 464.693 51.48 465.119 52.92C465.546 54.36 465.599 55.9333 465.279 57.64L463.999 64.68C463.839 65.5867 463.519 66.52 463.039 67.48C462.559 68.3867 461.973 69.24 461.279 70.04C460.586 70.84 459.786 71.5333 458.879 72.12C458.026 72.7067 457.119 73.08 456.159 73.24C458.026 73.6133 459.413 74.52 460.319 75.96C461.226 77.4 461.519 79.0533 461.199 80.92L458.719 95H437.199L438.879 85.24C438.986 84.28 438.746 83.4533 438.159 82.76C437.626 82.0667 436.879 81.72 435.919 81.72H420.799L415.599 67.72H438.319C439.279 67.72 440.159 67.4533 440.959 66.92C441.813 66.3333 442.346 65.5333 442.559 64.52L442.639 63.8C442.853 62.7867 442.639 61.9867 441.999 61.4C441.359 60.8133 440.559 60.52 439.599 60.52H414.719L408.719 95H387.039L395.599 46.04H454.719ZM503.973 46.04L495.413 95H473.733L482.293 46.04H503.973ZM585.307 46.04L582.747 60.52L543.227 80.12H579.307L576.747 95H509.707L512.187 80.52L551.787 60.92H515.707L518.267 46.04H585.307ZM662.945 46.04L660.385 60.52H618.785L618.145 64.28H649.425L647.265 76.68H615.985L615.265 80.52H656.865L654.385 95H591.105L599.665 46.04H662.945Z" fill="#FF0000"/>
</g>
<defs>
<filter id="filter0_d_3_374" x="0.120117" y="0.399994" width="710.825" height="139.6" filterUnits="userSpaceOnUse" color-interpolation-filters="sRGB">
<feFlood flood-opacity="0" result="BackgroundImageFix"/>
<feColorMatrix in="SourceAlpha" type="matrix" values="0 0 0 0 0 0 0 0 0 0 0 0 0 0 0 0 0 0 127 0" result="hardAlpha"/>
<feOffset dx="7" dy="4"/>
<feGaussianBlur stdDeviation="20.5"/>
<feComposite in2="hardAlpha" operator="out"/>
<feColorMatrix type="matrix" values="0 0 0 0 0.192157 0 0 0 0 0.678431 0 0 0 0 0.878431 0 0 0 1 0"/>
<feBlend mode="normal" in2="BackgroundImageFix" result="effect1_dropShadow_3_374"/>
<feBlend mode="normal" in="SourceGraphic" in2="effect1_dropShadow_3_374" result="shape"/>
</filter>
</defs>
</svg>
